<svg width="512" height="512" viewBox="0 0 512 512" xmlns="http://www.w3.org/2000/svg">
  <defs>
    <linearGradient id="grad2" x1="0%" y1="0%" x2="100%" y2="100%">
      <stop offset="0%" style="stop-color:#9333ea;stop-opacity:1" />
      <stop offset="100%" style="stop-color:#ec4899;stop-opacity:1" />
    </linearGradient>
  </defs>
  <rect width="512" height="512" fill="url(#grad2)"/>
  <circle cx="256" cy="180" r="75" fill="#fbbf24"/>
  <circle cx="256" cy="120" r="70" fill="#fef3c7"/>
  <ellipse cx="320" cy="140" rx="25" ry="80" fill="#fde68a" transform="rotate(30 320 140)"/>
  <circle cx="340" cy="110" r="20" fill="#fde68a"/>
  <circle cx="230" cy="180" r="22" fill="none" stroke="#1f2937" stroke-width="3"/>
  <circle cx="282" cy="180" r="22" fill="none" stroke="#1f2937" stroke-width="3"/>
  <line x1="252" y1="180" x2="260" y2="180" stroke="#1f2937" stroke-width="3"/>
  <circle cx="230" cy="180" r="5" fill="#1f2937"/>
  <circle cx="282" cy="180" r="5" fill="#1f2937"/>
  <ellipse cx="256" cy="195" rx="3" ry="7" fill="#fbbf24" opacity="0.6"/>
  <path d="M 242 215 Q 256 222 270 215" stroke="#1f2937" stroke-width="2" fill="none"/>
  <path d="M 210 255 L 190 400 L 210 420 L 302 420 L 322 400 L 302 255 Z" fill="#6b21a8"/>
</svg>
