<svg width="512" height="512" viewBox="0 0 512 512" xmlns="http://www.w3.org/2000/svg">
  <defs>
    <linearGradient id="grad1" x1="0%" y1="0%" x2="100%" y2="100%">
      <stop offset="0%" style="stop-color:#2563eb;stop-opacity:1" />
      <stop offset="100%" style="stop-color:#1e40af;stop-opacity:1" />
    </linearGradient>
  </defs>
  <rect width="512" height="512" fill="url(#grad1)"/>
  <circle cx="256" cy="180" r="80" fill="#fbbf24"/>
  <path d="M 200 140 Q 180 100 200 80 Q 220 60 256 70 Q 292 60 312 80 Q 332 100 312 140" fill="#92400e"/>
  <circle cx="230" cy="180" r="25" fill="none" stroke="#1f2937" stroke-width="4"/>
  <circle cx="282" cy="180" r="25" fill="none" stroke="#1f2937" stroke-width="4"/>
  <line x1="255" y1="180" x2="257" y2="180" stroke="#1f2937" stroke-width="4"/>
  <circle cx="230" cy="180" r="6" fill="#1f2937"/>
  <circle cx="282" cy="180" r="6" fill="#1f2937"/>
  <ellipse cx="256" cy="200" rx="4" ry="8" fill="#fbbf24" opacity="0.6"/>
  <path d="M 240 220 Q 256 230 272 220" stroke="#1f2937" stroke-width="2" fill="none"/>
  <path d="M 200 260 L 180 400 L 200 420 L 312 420 L 332 400 L 312 260 Z" fill="#1e3a8a"/>
</svg>
